<?xml version="1.0" encoding="utf-8"?>
<!-- Generator: Adobe Illustrator 25.2.3, SVG Export Plug-In . SVG Version: 6.00 Build 0)  -->
<svg version="1.1" id="Capa_1" xmlns="http://www.w3.org/2000/svg" xmlns:xlink="http://www.w3.org/1999/xlink" x="0px" y="0px"
	 viewBox="0 0 258 157" style="enable-background:new 0 0 258 157;" xml:space="preserve">
<style type="text/css">
	.st0{clip-path:url(#SVGID_2_);fill:#0B2447;}
	.st1{clip-path:url(#SVGID_2_);}
	.st2{fill:#FFFFFF;stroke:#FFFFFF;stroke-miterlimit:10;}
	.st3{fill:#14A6CE;stroke:#176E95;stroke-miterlimit:10;}
</style>
<g>
	<defs>
		<rect id="SVGID_1_" width="258" height="157"/>
	</defs>
	<clipPath id="SVGID_2_">
		<use xlink:href="#SVGID_1_"  style="overflow:visible;"/>
	</clipPath>
	<rect id="Rectángulo_1" x="18" y="9" class="st0" width="14" height="73.2"/>
	<rect id="Rectángulo_2" x="18" y="9" class="st0" width="73.2" height="14"/>
	<path id="Trazado_1" class="st0" d="M229.7,74.8h14v72h-14V74.8z"/>
	<rect id="Rectángulo_4" x="163.4" y="132.7" class="st0" width="73.2" height="14"/>
	<g class="st1">
		<circle class="st2" cx="129" cy="78.5" r="49.2"/>
		<path class="st3" d="M106,102.9c18.5,14,38.6,16,60.3,7.1c-3.9,6-8.9,9.3-15.8,9.3c-5.9,0-11.7,0-17.8,0.5
			c5.6,1.1,11.2,2.2,17.2,3.3c-3,1-5.8,2.2-8.8,3c-31.5,7.9-61.7-15.8-61.3-48.2c0.3-26.9,21.9-48.2,49-48.6
			c27.4-0.3,50.3,23.1,49.3,50.4c0,1-0.1,2.1-0.1,3.1c-0.3,8.9-1.1,9.8-9.4,13c-8.1,3.1-16.1,6.6-24.3,9.4
			c-12.7,4.4-25.4,4.5-37.5-2.2C106.6,102.9,106.3,103,106,102.9z M142.9,44.4c-10.5-7.3-29.4-6.5-41,6.7
			c-11.2,12.7-10.4,33.2,1.5,45c12.7,12.6,31.6,11.5,39.8,5c-15.3,2.2-25.6-1.3-32.5-11.7c-6.7-10.2-7.4-21-1-31.5
			C117.3,45.6,128.8,41.7,142.9,44.4z M155.3,83.4c5.9-6.5,4-21.2-3.7-28.7c-9.5-9.4-24.2-9.5-34.1-0.4c-7.8,7.2-10,21.9-4.2,28.6
			c-0.4-17.6,8-27.4,22.5-26.6C149.2,57.1,157.3,68.4,155.3,83.4z"/>
	</g>
</g>
</svg>
