<svg xmlns="http://www.w3.org/2000/svg" viewBox="0 0 101 101"><defs><style>.cls-1{fill:#fff;stroke:#fff;}.cls-1,.cls-2{stroke-miterlimit:10;}.cls-2{fill:#17a7cf;stroke:#196e96;}</style></defs><g id="Capa_2" data-name="Capa 2"><g id="Capa_1-2" data-name="Capa 1"><circle class="cls-1" cx="50.5" cy="50.5" r="50"/><path class="cls-2" d="M27.08,75.35C46,89.63,66.32,91.62,88.39,82.56c-4,6.13-9.06,9.44-16,9.47-6,0-11.92,0-18.07.53l17.46,3.38c-3,1-5.92,2.25-8.92,3A50,50,0,1,1,50.35.5C78.24.18,101.54,24,100.46,51.8l-.12,3.14c-.33,9.08-1.1,10-9.6,13.2-8.26,3.11-16.33,6.74-24.67,9.61-12.94,4.46-25.8,4.59-38.15-2.27A2.51,2.51,0,0,0,27.08,75.35ZM64.61,15.81C53.89,8.4,34.72,9.19,22.87,22.64c-11.41,13-10.56,33.73,1.56,45.75C37.34,81.19,56.59,80.08,65,73.45c-15.53,2.27-26.09-1.35-33-11.87-6.83-10.36-7.5-21.38-1-32C38.59,17,50.33,13.05,64.61,15.81ZM77.29,55.46c6-6.59,4.07-21.52-3.73-29.21-9.69-9.54-24.59-9.71-34.74-.38C30.89,33.16,28.68,48.15,34.53,55c-.36-17.87,8.13-27.89,22.94-27.07C71,28.68,79.33,40.2,77.29,55.46Z"/></g></g></svg>